<svg width="152" height="25" viewBox="0 0 152 25" fill="none" xmlns="http://www.w3.org/2000/svg">
  <path d="M16.7255 7.5625H14.4755L13.163 12.425H15.413L14.7505 14.95H12.5005L11.4755 18.75H8.87549L9.90049 14.95H4.85049L3.82549 18.75H1.22549L2.25049 14.95H0.000488352L0.675488 12.425H2.91299L4.22549 7.5625H1.97549L2.65049 5.05H4.88799L5.91299 1.25H8.51299L7.48799 5.05H12.563L13.563 1.25H16.163L15.163 5.05H17.388L16.7255 7.5625ZM10.563 12.425L11.8755 7.5625H6.82549L5.51299 12.425H10.563ZM23.6353 18.9875C22.9769 18.9458 22.3353 18.8125 21.7103 18.5875C21.0853 18.3625 20.5353 18.0583 20.0603 17.675C19.5936 17.2833 19.2436 16.825 19.0103 16.3L21.2228 15.35C21.3311 15.575 21.5186 15.7958 21.7853 16.0125C22.0603 16.2292 22.3811 16.4083 22.7478 16.55C23.1144 16.6833 23.4978 16.75 23.8978 16.75C24.2894 16.75 24.6519 16.6958 24.9853 16.5875C25.3269 16.4708 25.6061 16.2958 25.8228 16.0625C26.0394 15.8292 26.1478 15.55 26.1478 15.225C26.1478 14.8583 26.0228 14.575 25.7728 14.375C25.5311 14.1667 25.2269 14.0083 24.8603 13.9C24.4936 13.7917 24.1269 13.6875 23.7603 13.5875C22.9436 13.4042 22.1936 13.1542 21.5103 12.8375C20.8353 12.5125 20.2978 12.1 19.8978 11.6C19.4978 11.0917 19.2978 10.4708 19.2978 9.7375C19.2978 8.9375 19.5144 8.24583 19.9478 7.6625C20.3811 7.07083 20.9478 6.61667 21.6478 6.3C22.3561 5.98333 23.1103 5.825 23.9103 5.825C24.9103 5.825 25.8269 6.0375 26.6603 6.4625C27.4936 6.8875 28.1311 7.47083 28.5728 8.2125L26.5103 9.4375C26.3853 9.1875 26.1978 8.9625 25.9478 8.7625C25.6978 8.5625 25.4144 8.40417 25.0978 8.2875C24.7811 8.1625 24.4519 8.09167 24.1103 8.075C23.6853 8.05833 23.2894 8.10833 22.9228 8.225C22.5644 8.33333 22.2769 8.50833 22.0603 8.75C21.8436 8.99167 21.7353 9.3 21.7353 9.675C21.7353 10.0417 21.8644 10.3167 22.1228 10.5C22.3811 10.675 22.7061 10.8167 23.0978 10.925C23.4978 11.0333 23.9061 11.1542 24.3228 11.2875C25.0644 11.5208 25.7603 11.8083 26.4103 12.15C27.0603 12.4833 27.5853 12.8958 27.9853 13.3875C28.3853 13.8792 28.5769 14.4792 28.5603 15.1875C28.5603 15.9708 28.3228 16.6583 27.8478 17.25C27.3811 17.8417 26.7728 18.2917 26.0228 18.6C25.2728 18.9083 24.4769 19.0375 23.6353 18.9875ZM37.3007 8.85H34.6757L34.6632 18.75H32.0632L32.0757 8.85H30.0882V6.25H32.0757L32.0632 2.325H34.6632L34.6757 6.25H37.3007V8.85ZM48.9706 6.25H51.5706V18.75H48.9581L48.8581 16.9375C48.4914 17.5792 47.9956 18.0958 47.3706 18.4875C46.7456 18.8792 46.0081 19.075 45.1581 19.075C44.2414 19.075 43.3789 18.9042 42.5706 18.5625C41.7623 18.2125 41.0498 17.7292 40.4331 17.1125C39.8248 16.4958 39.3498 15.7875 39.0081 14.9875C38.6664 14.1792 38.4956 13.3125 38.4956 12.3875C38.4956 11.4958 38.6623 10.6583 38.9956 9.875C39.3289 9.08333 39.7914 8.39167 40.3831 7.8C40.9748 7.20833 41.6581 6.74583 42.4331 6.4125C43.2164 6.07083 44.0539 5.9 44.9456 5.9C45.8539 5.9 46.6539 6.10833 47.3456 6.525C48.0456 6.93333 48.6248 7.45833 49.0831 8.1L48.9706 6.25ZM45.0956 16.5625C45.8289 16.5625 46.4706 16.3833 47.0206 16.025C47.5706 15.6583 47.9956 15.1667 48.2956 14.55C48.6039 13.9333 48.7581 13.25 48.7581 12.5C48.7581 11.7417 48.6039 11.0542 48.2956 10.4375C47.9873 9.82083 47.5581 9.33333 47.0081 8.975C46.4664 8.60833 45.8289 8.425 45.0956 8.425C44.3706 8.425 43.7081 8.60833 43.1081 8.975C42.5081 9.34167 42.0331 9.83333 41.6831 10.45C41.3331 11.0667 41.1581 11.75 41.1581 12.5C41.1581 13.2583 41.3373 13.9458 41.6956 14.5625C42.0623 15.1708 42.5414 15.6583 43.1331 16.025C43.7331 16.3833 44.3873 16.5625 45.0956 16.5625ZM54.0649 18.75V6.25H56.6649V7.575C57.0983 7.05833 57.6316 6.65 58.2649 6.35C58.8983 6.05 59.5816 5.9 60.3149 5.9C60.7816 5.9 61.2441 5.9625 61.7024 6.0875L60.6649 8.7125C60.3399 8.5875 60.0149 8.525 59.6899 8.525C59.1399 8.525 58.6358 8.6625 58.1774 8.9375C57.7191 9.20417 57.3524 9.56667 57.0774 10.025C56.8024 10.4833 56.6649 10.9917 56.6649 11.55V18.75H54.0649ZM70.0644 8.85H67.4394L67.4269 18.75H64.8269L64.8394 8.85H62.8519V6.25H64.8394L64.8269 2.325H67.4269L67.4394 6.25H70.0644V8.85ZM71.8022 14.0625V6.25H74.4022V13.425C74.4022 13.9833 74.5397 14.4917 74.8147 14.95C75.0897 15.4083 75.4564 15.775 75.9147 16.05C76.3731 16.3167 76.8772 16.45 77.4272 16.45C77.9856 16.45 78.4897 16.3167 78.9397 16.05C79.3981 15.775 79.7606 15.4083 80.0272 14.95C80.3022 14.4917 80.4397 13.9833 80.4397 13.425V6.25H83.0397L83.0522 18.75H80.4522L80.4397 17.4C80.0147 17.9167 79.4856 18.325 78.8522 18.625C78.2189 18.925 77.5397 19.075 76.8147 19.075C75.8897 19.075 75.0481 18.85 74.2897 18.4C73.5314 17.95 72.9272 17.3458 72.4772 16.5875C72.0272 15.8292 71.8022 14.9875 71.8022 14.0625ZM87.6952 25H85.0952V6.25H87.6952V8.0875C88.1119 7.44583 88.6452 6.925 89.2952 6.525C89.9452 6.125 90.7119 5.925 91.5952 5.925C92.5035 5.925 93.3535 6.09583 94.1452 6.4375C94.9452 6.77917 95.6452 7.25417 96.2452 7.8625C96.8452 8.4625 97.316 9.15833 97.6577 9.95C97.9994 10.7417 98.1702 11.5917 98.1702 12.5C98.1702 13.4083 97.9994 14.2625 97.6577 15.0625C97.316 15.8625 96.8452 16.5667 96.2452 17.175C95.6452 17.775 94.9452 18.2458 94.1452 18.5875C93.3535 18.9292 92.5035 19.1 91.5952 19.1C90.7119 19.1 89.9452 18.9 89.2952 18.5C88.6452 18.0917 88.1119 17.5708 87.6952 16.9375V25ZM91.5702 8.4375C90.8452 8.4375 90.2077 8.62083 89.6577 8.9875C89.1077 9.35417 88.6785 9.84583 88.3702 10.4625C88.0619 11.0708 87.9077 11.75 87.9077 12.5C87.9077 13.25 88.0619 13.9333 88.3702 14.55C88.6785 15.1667 89.1077 15.6583 89.6577 16.025C90.2077 16.3917 90.8452 16.575 91.5702 16.575C92.2869 16.575 92.9452 16.3958 93.5452 16.0375C94.1452 15.6708 94.6244 15.1792 94.9827 14.5625C95.341 13.9458 95.5202 13.2583 95.5202 12.5C95.5202 11.7583 95.341 11.0792 94.9827 10.4625C94.6327 9.84583 94.1577 9.35417 93.5577 8.9875C92.9577 8.62083 92.2952 8.4375 91.5702 8.4375ZM99.9634 6.25H102.563V18.75H99.9634V6.25ZM101.288 4.4375C100.888 4.4375 100.555 4.30833 100.288 4.05C100.022 3.79167 99.8884 3.46667 99.8884 3.075C99.8884 2.69167 100.022 2.37083 100.288 2.1125C100.555 1.84583 100.884 1.7125 101.276 1.7125C101.659 1.7125 101.984 1.84583 102.251 2.1125C102.518 2.37083 102.651 2.69167 102.651 3.075C102.651 3.46667 102.518 3.79167 102.251 4.05C101.993 4.30833 101.672 4.4375 101.288 4.4375ZM116.707 10.9125V18.75H114.107V11.55C114.107 10.9917 113.969 10.4833 113.694 10.025C113.427 9.56667 113.065 9.20417 112.607 8.9375C112.157 8.6625 111.648 8.525 111.082 8.525C110.532 8.525 110.027 8.6625 109.569 8.9375C109.111 9.20417 108.744 9.56667 108.469 10.025C108.194 10.4833 108.057 10.9917 108.057 11.55V18.75H105.457V6.25H108.057V7.575C108.49 7.05833 109.023 6.65 109.657 6.35C110.29 6.05 110.973 5.9 111.707 5.9C112.632 5.9 113.473 6.125 114.232 6.575C114.99 7.025 115.59 7.62917 116.032 8.3875C116.482 9.14583 116.707 9.9875 116.707 10.9125ZM128.695 -1.49012e-06H131.295V18.75H128.695V16.9125C128.287 17.5625 127.753 18.0875 127.095 18.4875C126.437 18.8792 125.666 19.075 124.783 19.075C123.874 19.075 123.024 18.9042 122.233 18.5625C121.441 18.2208 120.741 17.75 120.133 17.15C119.533 16.5417 119.062 15.8417 118.72 15.05C118.378 14.2583 118.208 13.4083 118.208 12.5C118.208 11.5917 118.378 10.7417 118.72 9.95C119.062 9.15 119.533 8.45 120.133 7.85C120.741 7.24167 121.441 6.76667 122.233 6.425C123.024 6.08333 123.874 5.9125 124.783 5.9125C125.666 5.9125 126.437 6.1125 127.095 6.5125C127.753 6.90417 128.287 7.42083 128.695 8.0625V-1.49012e-06ZM124.808 16.5625C125.541 16.5625 126.183 16.3833 126.733 16.025C127.283 15.6583 127.708 15.1667 128.008 14.55C128.316 13.9333 128.47 13.25 128.47 12.5C128.47 11.7417 128.316 11.0542 128.008 10.4375C127.699 9.82083 127.27 9.33333 126.72 8.975C126.178 8.60833 125.541 8.425 124.808 8.425C124.083 8.425 123.42 8.60833 122.82 8.975C122.228 9.34167 121.753 9.83333 121.395 10.45C121.045 11.0667 120.87 11.75 120.87 12.5C120.87 13.2583 121.049 13.9458 121.408 14.5625C121.774 15.1708 122.253 15.6583 122.845 16.025C123.445 16.3833 124.099 16.5625 124.808 16.5625ZM134.29 6.25H136.89V18.75H134.29V6.25ZM135.615 4.4375C135.215 4.4375 134.881 4.30833 134.615 4.05C134.348 3.79167 134.215 3.46667 134.215 3.075C134.215 2.69167 134.348 2.37083 134.615 2.1125C134.881 1.84583 135.21 1.7125 135.602 1.7125C135.985 1.7125 136.31 1.84583 136.577 2.1125C136.844 2.37083 136.977 2.69167 136.977 3.075C136.977 3.46667 136.844 3.79167 136.577 4.05C136.319 4.30833 135.998 4.4375 135.615 4.4375ZM149.386 6.25H151.986V18.75H149.373L149.273 16.9375C148.906 17.5792 148.411 18.0958 147.786 18.4875C147.161 18.8792 146.423 19.075 145.573 19.075C144.656 19.075 143.794 18.9042 142.986 18.5625C142.177 18.2125 141.465 17.7292 140.848 17.1125C140.24 16.4958 139.765 15.7875 139.423 14.9875C139.081 14.1792 138.911 13.3125 138.911 12.3875C138.911 11.4958 139.077 10.6583 139.411 9.875C139.744 9.08333 140.206 8.39167 140.798 7.8C141.39 7.20833 142.073 6.74583 142.848 6.4125C143.631 6.07083 144.469 5.9 145.361 5.9C146.269 5.9 147.069 6.10833 147.761 6.525C148.461 6.93333 149.04 7.45833 149.498 8.1L149.386 6.25ZM145.511 16.5625C146.244 16.5625 146.886 16.3833 147.436 16.025C147.986 15.6583 148.411 15.1667 148.711 14.55C149.019 13.9333 149.173 13.25 149.173 12.5C149.173 11.7417 149.019 11.0542 148.711 10.4375C148.402 9.82083 147.973 9.33333 147.423 8.975C146.881 8.60833 146.244 8.425 145.511 8.425C144.786 8.425 144.123 8.60833 143.523 8.975C142.923 9.34167 142.448 9.83333 142.098 10.45C141.748 11.0667 141.573 11.75 141.573 12.5C141.573 13.2583 141.752 13.9458 142.111 14.5625C142.477 15.1708 142.956 15.6583 143.548 16.025C144.148 16.3833 144.802 16.5625 145.511 16.5625Z" fill="#F15A25"/>
</svg>
